# xmcd
#
# Track frame offsets:
#	150
#	18504
#	32041
#	50589
#	70260
#	86159
#	101247
#	117334
#	133986
#	150963
#
# Disc length: 2219 seconds
#
# Revision: 0
# Processed by: cddbd v1.4PL0 Copyright (c) Steve Scherf et al.
# Submitted via: audiograbber 1.80.04
#
DISCID=8808a90a
DTITLE=Steve Wariner - I Should Be With You
DYEAR=2002
DGENRE=Country
TTITLE0=Runnin'
TTITLE1=More Than Enough
TTITLE2=Hold On (A Little Longer)
TTITLE3=Caught Between Your Duty And Your Dream
TTITLE4=I Should Be With You
TTITLE5=All That Matters
TTITLE6=Party Of One
TTITLE7=Baby I'm Yours
TTITLE8=Somewhere Between Old And New York
TTITLE9=Lights Out
EXTD=
EXTT0=
EXTT1=
EXTT2=
EXTT3=
EXTT4=
EXTT5=
EXTT6=
EXTT7=
EXTT8=
EXTT9=
PLAYORDER=
